# xmcd CD database file
#
# Track frame offsets:
#	150
#	32540
#	50459
#	69126
#	86522
#	105378
#	116066
#	131260
#	144674
#	158218
#	171485
#	184679
#	211072
#
# Disc length: 3071 seconds
#
# Revision: 0
# Processed by: cddbd v1.5.1PL2 Copyright (c) Steve Scherf et al.
# Submitted via: CDex 1.51
#
DISCID=a80bfd0d
DTITLE=Relax and wellness - Winter edition - 4
DYEAR=2005
DGENRE=New Age
TTITLE0=heartbeatin' nights
TTITLE1=april rain
TTITLE2=oriental spices
TTITLE3=Australian sunrise
TTITLE4=floating peak
TTITLE5=right in
TTITLE6=lobby
TTITLE7=jog
TTITLE8=easy Kate 3
TTITLE9=easy Kate 6
TTITLE10=it's all in the shoes
TTITLE11=waters unseen
TTITLE12=Jamine
EXTD=YEAR: 2005
EXTT0=
EXTT1=
EXTT2=
EXTT3=
EXTT4=
EXTT5=
EXTT6=
EXTT7=
EXTT8=
EXTT9=
EXTT10=
EXTT11=
EXTT12=
PLAYORDER=
